<svg width="233" height="177" viewBox="0 0 233 177" fill="none" xmlns="http://www.w3.org/2000/svg">
<g filter="url(#filter0_d_97_3)">
<ellipse cx="1.5" cy="122.079" rx="1.5" ry="2" fill="#1C402F"/>
<path d="M178.499 37.9361C179.59 38.1785 190.771 36.3091 199.167 62.4531C198.851 62.8412 207.322 99.9963 203.515 107.855C203.515 107.855 199.251 135.311 182.051 106.525C182.03 106.55 181.972 106.492 181.883 106.36C185.852 113.769 190.212 118.882 194.058 119.498C178.754 119.307 166.116 107.109 161.167 100.513C151.41 103.538 131.958 109.511 132.21 109.2C131.945 123.801 112.084 137.944 113.418 137.095C106.748 142.986 97.4713 131.188 97.8699 131.541C93.4449 126.92 86.0164 105.39 85 95.5793L83.4304 74.0892C83.4032 56.6751 92.523 58.9292 92.4502 58.2259C106.323 57.6416 119.284 69.071 124.031 74.8588L154.226 67.8204C155.503 47.2145 170.94 39.3117 178.499 37.9361Z" fill="#F2E966"/>
<path d="M30.2252 119.767C30.2252 119.767 3.50007 125.112 1.00007 122.439C-1.49993 119.767 30.9997 110.09 30.9997 110.09L85 97.5793L87 106.079L30.2252 119.767Z" fill="#7E7E7E" stroke="#777777"/>
<path d="M157.844 95.8808C155.143 91.5399 150.662 80.772 154.347 72.4282" stroke="#DA7D5B"/>
<path d="M128.552 108.794C122.795 105.912 112.318 85.3138 122.382 76.0958" stroke="#DA7D5B"/>
<path d="M195.228 119.426C184.556 117.972 175.255 92.4672 171.938 79.8963C165.162 50.1722 173.799 39.5381 178.965 37.9366C196.379 37.9095 200.434 70.1904 201.138 70.1175C204.098 81.5405 208.567 121.243 195.228 119.426Z" fill="#92D9B7"/>
</g>
<defs>
<filter id="filter0_d_97_3" x="0" y="37.936" width="218.5" height="110.81" filterUnits="userSpaceOnUse" color-interpolation-filters="sRGB">
<feFlood flood-opacity="0" result="BackgroundImageFix"/>
<feColorMatrix in="SourceAlpha" type="matrix" values="0 0 0 0 0 0 0 0 0 0 0 0 0 0 0 0 0 0 127 0" result="hardAlpha"/>
<feOffset dx="10" dy="6"/>
<feGaussianBlur stdDeviation="2"/>
<feComposite in2="hardAlpha" operator="out"/>
<feColorMatrix type="matrix" values="0 0 0 0 0 0 0 0 0 0 0 0 0 0 0 0 0 0 0.25 0"/>
<feBlend mode="normal" in2="BackgroundImageFix" result="effect1_dropShadow_97_3"/>
<feBlend mode="normal" in="SourceGraphic" in2="effect1_dropShadow_97_3" result="shape"/>
</filter>
</defs>
</svg>
