<svg width="233" height="178" viewBox="0 0 233 178" fill="none" xmlns="http://www.w3.org/2000/svg">
<ellipse cx="2" cy="123" rx="2" ry="5" fill="#1C402F"/>
<path d="M178.499 38.8568C179.59 39.0992 190.771 37.2297 199.167 63.3737C198.851 63.7618 207.322 100.917 203.515 108.776C203.515 108.776 199.251 136.231 182.051 107.445C182.03 107.471 181.972 107.413 181.883 107.281C185.852 114.69 190.212 119.803 194.058 120.419C178.754 120.227 166.116 108.03 161.167 101.434C151.41 104.459 131.958 110.432 132.21 110.121C131.945 124.722 112.084 138.865 113.418 138.016C106.748 143.907 97.4713 132.109 97.8699 132.462C93.4449 127.84 86.0164 106.31 85 96.5L83.4304 75.0098C83.4032 57.5958 92.523 59.8499 92.4502 59.1465C106.323 58.5622 119.284 69.9917 124.031 75.7794L154.226 68.7411C155.503 48.1351 170.94 40.2324 178.499 38.8568Z" fill="#F2E966"/>
<path d="M30.2252 120.688C30.2252 120.688 3.50007 126.033 1.00007 123.36C-1.49993 120.688 30.9997 111.01 30.9997 111.01L85 98.5L87 107L30.2252 120.688Z" fill="#7E7E7E" stroke="#777777"/>
<path d="M157.844 96.8015C155.143 92.4605 150.662 81.6927 154.347 73.3489" stroke="#DA7D5B"/>
<path d="M128.552 109.715C122.795 106.832 112.318 86.2344 122.382 77.0164" stroke="#DA7D5B"/>
<path d="M195.228 120.347C184.556 118.893 175.255 93.3879 171.938 80.817C165.162 51.0929 173.799 40.4588 178.965 38.8572C196.379 38.8302 200.434 71.111 201.138 71.0382C204.099 82.4611 208.568 122.163 195.228 120.347Z" fill="#92D9B7"/>
</svg>
